<svg width="941.82" height="308" viewBox="0 0 941.82 308" fill="none" xmlns="http://www.w3.org/2000/svg">
    <path
        d="M219 236V74H234.75V112.85L230.85 107.75C232.65 103.15 234.9 98.9 237.6 95C240.4 91 243.25 87.75 246.15 85.25C250.45 81.25 255.5 78.25 261.3 76.25C267.1 74.15 272.95 72.95 278.85 72.65C284.75 72.25 290.1 72.7 294.9 74V90.35C288.5 88.85 281.7 88.55 274.5 89.45C267.3 90.35 260.55 93.45 254.25 98.75C248.75 103.55 244.75 109.15 242.25 115.55C239.75 121.85 238.15 128.5 237.45 135.5C236.75 142.4 236.4 149.15 236.4 155.75V236H219ZM387.117 240.5C371.617 240.5 358.217 237.05 346.917 230.15C335.617 223.15 326.867 213.3 320.667 200.6C314.467 187.8 311.367 172.7 311.367 155.3C311.367 137.6 314.417 122.35 320.517 109.55C326.717 96.65 335.417 86.75 346.617 79.85C357.917 72.95 371.317 69.5 386.817 69.5C402.517 69.5 415.917 73.1 427.017 80.3C438.217 87.4 446.717 97.7 452.517 111.2C458.417 124.7 461.217 140.95 460.917 159.95H442.917V153.95C442.417 131.75 437.417 114.85 427.917 103.25C418.417 91.65 404.817 85.85 387.117 85.85C368.817 85.85 354.667 91.9 344.667 104C334.767 116 329.817 133 329.817 155C329.817 176.8 334.767 193.7 344.667 205.7C354.667 217.7 368.717 223.7 386.817 223.7C399.317 223.7 410.217 220.8 419.517 215C428.917 209.1 436.367 200.7 441.867 189.8L457.467 196.7C450.967 210.7 441.567 221.5 429.267 229.1C416.967 236.7 402.917 240.5 387.117 240.5ZM323.217 159.95V144.35H451.167V159.95H323.217ZM532.038 236L473.238 74H491.088L541.188 212.45L591.138 74H609.138L550.338 236H532.038ZM639.188 41.3V19.25H656.438V41.3H639.188ZM639.188 236V74H656.438V236H639.188ZM787.47 236C778.87 237.9 770.37 238.6 761.97 238.1C753.57 237.7 746.07 235.85 739.47 232.55C732.97 229.15 728.07 223.95 724.77 216.95C722.07 211.25 720.57 205.5 720.27 199.7C719.97 193.9 719.82 187.25 719.82 179.75V29H737.22V179.45C737.22 186.25 737.27 191.9 737.37 196.4C737.57 200.8 738.62 204.85 740.52 208.55C744.12 215.45 749.82 219.65 757.62 221.15C765.42 222.55 775.37 222.3 787.47 220.4V236ZM683.52 89.75V74H787.47V89.75H683.52ZM837.72 308L869.22 223.25L869.52 248.45L798.57 74H817.02L877.92 225.5H868.32L923.67 74H941.82L855.72 308H837.72Z"
        fill="#0F766E"></path>
    <path
        d="M103.575 0H10.9751C4.95224 0 0.012695 4.9266 0.012695 10.9624V83.946C2.88872 81.264 6.74492 79.626 10.9751 79.626H18.0685V21.706C18.0685 19.694 19.7193 18.056 21.7312 18.056H103.575C131.136 18.056 153.551 40.909 153.551 68.999C153.551 74.48 152.7 79.768 151.114 84.72C150.585 86.384 149.979 88.009 149.282 89.582C148.599 91.169 147.838 92.703 147 94.2C146.368 95.334 145.684 96.444 144.988 97.514C144.02 98.958 142.989 100.351 141.879 101.68C140.745 103.073 139.532 104.401 138.242 105.652C137.249 106.645 136.205 107.587 135.134 108.476C133.6 109.753 131.987 110.94 130.298 112.036C128.35 113.3 126.3 114.422 124.172 115.415C117.891 118.317 110.914 119.942 103.575 119.942H28.386V137.998H103.575C118.123 137.998 131.613 133.342 142.679 125.436C144.098 124.417 145.478 123.347 146.819 122.225C148.147 121.116 149.424 119.955 150.662 118.742C151.591 117.853 152.494 116.924 153.358 115.97C154.518 114.706 155.641 113.377 156.711 112.023C157.781 110.669 158.8 109.289 159.755 107.857C160.49 106.774 161.186 105.665 161.857 104.543C162.76 103.034 163.598 101.486 164.385 99.9C165.184 98.314 165.919 96.676 166.577 95.012C169.827 86.977 171.607 78.194 171.607 68.999C171.607 30.953 141.093 0 103.575 0Z"
        fill="#5EE6B8"></path>
    <path
        d="M186.232 162.952C186.232 203.204 152.236 235.949 110.45 235.949H10.9624C4.91375 235.949 0 231.035 0 224.974V100.905C0 94.843 4.91375 89.942 10.9624 89.942H110.45C119.207 89.942 127.616 91.374 135.444 94.031C134.632 95.153 133.767 96.223 132.865 97.255C131.549 98.725 130.13 100.105 128.609 101.369C126.829 102.852 124.92 104.194 122.908 105.341C120.87 106.515 118.717 107.508 116.485 108.295C114.499 108.101 112.487 107.998 110.45 107.998H21.7185C19.6937 107.998 18.0558 109.623 18.0558 111.648V214.231C18.0558 216.255 19.6937 217.893 21.7185 217.893H110.45C142.279 217.893 168.177 193.247 168.177 162.952C168.177 150.133 163.547 138.332 155.796 128.982C156.75 128.105 157.678 127.228 158.594 126.299C159.819 125.074 161.019 123.81 162.167 122.494C163.314 121.192 164.411 119.863 165.468 118.483C166.268 117.439 167.055 116.368 167.79 115.272C179.281 128.079 186.232 144.742 186.232 162.952Z"
        fill="#0F766E"></path>
</svg>
