<svg width="948" height="410" viewBox="0 0 948 410" fill="none" xmlns="http://www.w3.org/2000/svg">
<path d="M219 320V158H234.75V196.85L230.85 191.75C232.65 187.15 234.9 182.9 237.6 179C240.4 175 243.25 171.75 246.15 169.25C250.45 165.25 255.5 162.25 261.3 160.25C267.1 158.15 272.95 156.95 278.85 156.65C284.75 156.25 290.1 156.7 294.9 158V174.35C288.5 172.85 281.7 172.55 274.5 173.45C267.3 174.35 260.55 177.45 254.25 182.75C248.75 187.55 244.75 193.15 242.25 199.55C239.75 205.85 238.15 212.5 237.45 219.5C236.75 226.4 236.4 233.15 236.4 239.75V320H219ZM387.117 324.5C371.617 324.5 358.217 321.05 346.917 314.15C335.617 307.15 326.867 297.3 320.667 284.6C314.467 271.8 311.367 256.7 311.367 239.3C311.367 221.6 314.417 206.35 320.517 193.55C326.717 180.65 335.417 170.75 346.617 163.85C357.917 156.95 371.317 153.5 386.817 153.5C402.517 153.5 415.917 157.1 427.017 164.3C438.217 171.4 446.717 181.7 452.517 195.2C458.417 208.7 461.217 224.95 460.917 243.95H442.917V237.95C442.417 215.75 437.417 198.85 427.917 187.25C418.417 175.65 404.817 169.85 387.117 169.85C368.817 169.85 354.667 175.9 344.667 188C334.767 200 329.817 217 329.817 239C329.817 260.8 334.767 277.7 344.667 289.7C354.667 301.7 368.717 307.7 386.817 307.7C399.317 307.7 410.217 304.8 419.517 299C428.917 293.1 436.367 284.7 441.867 273.8L457.467 280.7C450.967 294.7 441.567 305.5 429.267 313.1C416.967 320.7 402.917 324.5 387.117 324.5ZM323.217 243.95V228.35H451.167V243.95H323.217ZM532.038 320L473.238 158H491.088L541.188 296.45L591.138 158H609.138L550.338 320H532.038ZM639.188 125.3V103.25H656.438V125.3H639.188ZM639.188 320V158H656.438V320H639.188ZM787.47 320C778.87 321.9 770.37 322.6 761.97 322.1C753.57 321.7 746.07 319.85 739.47 316.55C732.97 313.15 728.07 307.95 724.77 300.95C722.07 295.25 720.57 289.5 720.27 283.7C719.97 277.9 719.82 271.25 719.82 263.75V113H737.22V263.45C737.22 270.25 737.27 275.9 737.37 280.4C737.57 284.8 738.62 288.85 740.52 292.55C744.12 299.45 749.82 303.65 757.62 305.15C765.42 306.55 775.37 306.3 787.47 304.4V320ZM683.52 173.75V158H787.47V173.75H683.52ZM837.72 392L869.22 307.25L869.52 332.45L798.57 158H817.02L877.92 309.5H868.32L923.67 158H941.82L855.72 392H837.72Z" fill="#0F766E"></path>
<path d="M103.575 84H10.9751C4.95224 84 0.0126953 88.9266 0.0126953 94.9624V167.946C2.88872 165.264 6.74492 163.626 10.9751 163.626H18.0685V105.706C18.0685 103.694 19.7193 102.056 21.7312 102.056H103.575C131.136 102.056 153.551 124.909 153.551 152.999C153.551 158.48 152.7 163.768 151.114 168.72C150.585 170.384 149.979 172.009 149.282 173.582C148.599 175.169 147.838 176.703 147 178.2C146.368 179.334 145.684 180.444 144.988 181.514C144.02 182.958 142.989 184.351 141.879 185.68C140.745 187.073 139.532 188.401 138.242 189.652C137.249 190.645 136.205 191.587 135.134 192.476C133.6 193.753 131.987 194.94 130.298 196.036C128.35 197.3 126.3 198.422 124.172 199.415C117.891 202.317 110.914 203.942 103.575 203.942H28.386V221.998H103.575C118.123 221.998 131.613 217.342 142.679 209.436C144.098 208.417 145.478 207.347 146.819 206.225C148.147 205.116 149.424 203.955 150.662 202.742C151.591 201.853 152.494 200.924 153.358 199.97C154.518 198.706 155.641 197.377 156.711 196.023C157.781 194.669 158.8 193.289 159.755 191.857C160.49 190.774 161.186 189.665 161.857 188.543C162.76 187.034 163.598 185.486 164.385 183.9C165.184 182.314 165.919 180.676 166.577 179.012C169.827 170.977 171.607 162.194 171.607 152.999C171.607 114.953 141.093 84 103.575 84Z" fill="#5EE6B8"></path>
<path d="M186.232 246.952C186.232 287.204 152.236 319.949 110.45 319.949H10.9624C4.91375 319.949 0 315.035 0 308.974V184.905C0 178.843 4.91375 173.942 10.9624 173.942H110.45C119.207 173.942 127.616 175.374 135.444 178.031C134.632 179.153 133.767 180.223 132.865 181.255C131.549 182.725 130.13 184.105 128.609 185.369C126.829 186.852 124.92 188.194 122.908 189.341C120.87 190.515 118.717 191.508 116.485 192.295C114.499 192.101 112.487 191.998 110.45 191.998H21.7185C19.6937 191.998 18.0558 193.623 18.0558 195.648V298.231C18.0558 300.255 19.6937 301.893 21.7185 301.893H110.45C142.279 301.893 168.177 277.247 168.177 246.952C168.177 234.133 163.547 222.332 155.796 212.982C156.75 212.105 157.678 211.228 158.594 210.299C159.819 209.074 161.019 207.81 162.167 206.494C163.314 205.192 164.411 203.863 165.468 202.483C166.268 201.439 167.055 200.368 167.79 199.272C179.281 212.079 186.232 228.742 186.232 246.952Z" fill="#0F766E"></path>
</svg>